<?xml version="1.0" encoding="utf-8"?>
<!-- Svg Vector Icons : http://www.onlinewebfonts.com/icon -->
<!DOCTYPE svg PUBLIC "-//W3C//DTD SVG 1.1//EN" "http://www.w3.org/Graphics/SVG/1.1/DTD/svg11.dtd">
<svg version="1.1" xmlns="http://www.w3.org/2000/svg" xmlns:xlink="http://www.w3.org/1999/xlink" x="0px" y="0px" viewBox="0 0 1000 1000" enable-background="new 0 0 1000 1000" xml:space="preserve">
<metadata> Svg Vector Icons : http://www.onlinewebfonts.com/icon </metadata>
<g><g transform="matrix(1 0 0 -1 0 1920)"><path d="M584.3,1680c-25.5,0-47.4,9.1-65.5,27.3c-18.2,18.2-27.3,40-27.3,65.6v1.2v0.8l-74.9-19.1c-3.3-0.8-6.2-0.1-8.8,2c-2.6,2.2-3.9,5-3.9,8.5c0,5.4,2.2,9.5,6.5,12.2l66.4,43.2c2.4,17.6,9.1,34.3,20,50.1c10.9,15.7,26.2,26.9,46,33.4c10,3.3,21,4.9,33,4.9c8.4,0,16.8-0.9,25-2.6c8.3-1.8,16.6-4.8,25-9.2c8.4-4.3,16.2-9.7,23.2-16.1c7.1-6.4,13.4-14.6,19.1-24.6c5.7-10,10.2-21.3,13.4-33.8l-17.1-4.5c8.4-14.7,12.6-30.1,12.6-46.4c0-25.5-9.1-47.4-27.3-65.6C631.6,1689.1,609.8,1680,584.3,1680z M502.8,930c-7.9,0-14.6,2.8-20.2,8.3c-5.6,5.6-8.3,12.3-8.3,20.2s2.9,14.7,8.5,20.4H452c-2.7,0-5.1,1-7.1,3.1c-2,2-3.1,4.4-3.1,7.1v20.4c0,2.7,1,5.1,3.1,7.1c2,2,4.4,3.1,7.1,3.1h77.4l-0.8,13.8l51.3,151.5l-120.9,65.5l-84.3-118.9l-150.2-115.6l13.8-27.7l24.4-4.1c3.5-0.8,6.7-2.4,9.4-4.9c2.7-2.4,4.8-5.4,6.1-8.8s2-7,2-10.8c0-5.4-2.4-10.4-7.1-14.9s-10-6.7-15.7-6.7h-35.8c-34.5,27.1-55.8,44.8-63.9,52.9c-4.3,4.3-6.5,9.1-6.5,14.3c0,6.5,3.4,13.8,10.2,22l112,142.9l107.5,164.5l39.9,176.7l-82.7-57.8c-48.9-76.5-76-119.2-81.4-127.8c-6.8-10.6-16.4-15.9-28.9-15.9h-9.8c-3,0-5.6,0.5-7.9,1.4c-2.3,1-4.1,2.3-5.5,4.1c-1.4,1.8-2,3.9-2,6.3c0,1.6,0.3,3.4,0.8,5.3l73.3,172.2c2.7,8.7,5.7,14.3,9,16.7l184,135.6c14.4,10,30.1,15.1,47.2,15.1c6.2,0,12.3-0.7,18.3-2c22-5.2,38.8-17.5,50.5-37.1l127-149.4l127-81c5.2-5.2,7.7-10.9,7.7-17.1c0-3.5-1.2-6.9-3.7-10.2c-4.6-6.2-10.7-9.4-18.3-9.4l-7.3,1.2c-105.3,43.2-158.9,65.8-160.8,68l-79,55.4l-35.4-137.6c84.4-76.8,129.3-118.3,134.8-124.6c6.5-7.6,9.8-13.8,9.8-18.7c0-3.5-1.1-7.1-3.3-10.6c-2.2-3.5-6-8.7-11.4-15.5c-3-3.8-11.3-15.5-25-35c-13.7-19.5-26.7-38.3-38.9-56.2l-18.3-26.5l68.4-13c5.2-1.1,9.4-4,12.6-8.8c3.3-4.8,4.9-10,4.9-15.7c0-0.5-0.1-1.2-0.4-1.8c-0.3-0.7-0.4-1.2-0.4-1.4h163.3c2.7,0,5.1-1,7.1-3.1s3.1-4.4,3.1-7.1V989c0-2.7-1-5.1-3.1-7.1s-4.4-3.1-7.1-3.1h-30.9c5.7-5.7,8.5-12.5,8.5-20.4s-2.8-14.6-8.3-20.2c-5.6-5.6-12.3-8.3-20.2-8.3c-7.9,0-14.6,2.8-20.2,8.3c-5.6,5.6-8.3,12.3-8.3,20.2s2.8,14.7,8.5,20.4H522.8c5.7-5.7,8.5-12.5,8.5-20.4s-2.8-14.6-8.3-20.2C517.4,932.8,510.7,930,502.8,930z"/></g></g>
</svg>